<?xml version="1.0" encoding="iso-8859-1"?>
<!-- Generator: Adobe Illustrator 16.0.0, SVG Export Plug-In . SVG Version: 6.00 Build 0)  -->
<!DOCTYPE svg PUBLIC "-//W3C//DTD SVG 1.1//EN" "http://www.w3.org/Graphics/SVG/1.1/DTD/svg11.dtd">
<svg version="1.1" id="Capa_1" xmlns="http://www.w3.org/2000/svg" xmlns:xlink="http://www.w3.org/1999/xlink" x="0px" y="0px"
	 width="94.026px" height="94.026px" viewBox="0 0 94.026 94.026" style="enable-background:new 0 0 94.026 94.026;"
	 xml:space="preserve">
<g>
	<g>
		<g>
			<path d="M76.497,6.772c3.207,4.848,3.565,12.041,1.078,21.434c6.192,2.121,14.082,8.084,15.953,24.516
				c1.612,14.15-0.69,24.828-6.856,31.734c-4.978,5.579-11.988,8.407-20.841,8.407c-14.853,0-31.035-8.331-34.131-10.002
				c-2.996-1.619-4.857-4.741-4.857-8.146V35.249c0-4.497,3.213-8.331,7.646-9.118c1.334-0.235,13.113-2.533,15.66-10.566
				c2.774-8.749,9.098-14.402,16.112-14.402C70.4,1.163,74.131,3.206,76.497,6.772z M37.066,74.136
				c3.143,1.646,16.955,8.504,28.766,8.504c5.895,0,10.217-1.633,13.213-4.989c4.143-4.642,5.598-12.638,4.328-23.771
				c-1.215-10.654-5.619-16.543-12.404-16.583l-7.16-0.042l2.367-6.759c2.982-8.516,3.654-15.275,1.801-18.076
				c-0.313-0.471-0.864-1.033-1.715-1.033c-1.971,0-4.871,2.548-6.367,7.268C55.903,31.247,41.545,35.13,37.067,36.046
				L37.066,74.136L37.066,74.136z"/>
		</g>
		<g>
			<path d="M20.011,82.123V30.336c0-1.118-0.906-2.024-2.025-2.024H2.023C0.906,28.312,0,29.218,0,30.336v51.787
				c0,1.119,0.906,2.024,2.023,2.024h15.963C19.105,84.147,20.011,83.242,20.011,82.123z M13.927,76.173
				c0,2.162-1.76,3.922-3.922,3.922c-2.162,0-3.922-1.76-3.922-3.922s1.76-3.922,3.922-3.922
				C12.167,72.251,13.927,74.011,13.927,76.173z"/>
		</g>
	</g>
</g>
<g>
</g>
<g>
</g>
<g>
</g>
<g>
</g>
<g>
</g>
<g>
</g>
<g>
</g>
<g>
</g>
<g>
</g>
<g>
</g>
<g>
</g>
<g>
</g>
<g>
</g>
<g>
</g>
<g>
</g>
</svg>
